Coordinates
version=1
nRows=13
nColumns=36
inDegrees=yes

Units are S.I. units (second, meters, Newtons, ...)
If the header above contains a line with 'inDegrees', this indicates whether rotational values are in degrees (yes) or radians (no).

endheader
time	pelvis_tilt	pelvis_list	pelvis_rotation	pelvis_tx	pelvis_ty	pelvis_tz	hip_flexion_r	hip_adduction_r	hip_rotation_r	knee_angle_r	knee_angle_r_beta	ankle_angle_r	subtalar_angle_r	mtp_angle_r	hip_flexion_l	hip_adduction_l	hip_rotation_l	knee_angle_l	knee_angle_l_beta	ankle_angle_l	subtalar_angle_l	mtp_angle_l	lumbar_extension	lumbar_bending	lumbar_rotation	arm_flex_r	arm_add_r	arm_rot_r	elbow_flex_r	pro_sup_r	arm_flex_l	arm_add_l	arm_rot_l	elbow_flex_l	pro_sup_l
      1.33333330	     -2.91447551	      0.20731343	     -1.24679054	     -0.04503185	      1.17110086	      0.00131191	      6.46194871	     -1.22550671	      1.28219302	      5.21754826	      0.09106340	      4.40059507	    -13.91502270	     -7.49999987	      9.02111157	      1.31161370	      2.61355415	      9.89672434	      0.17273042	     -0.15096642	    -19.64148609	     -7.49999987	     -6.21778743	     -1.88648127	      1.78522954	    -11.51878300	    -15.95722222	     58.19201989	     18.98051105	     38.76997069	    -10.55698932	    -14.10433139	     58.63268531	     17.83831245	     33.76607209
      1.35000000	     -3.14091778	      0.21703354	     -1.26689952	     -0.04332596	      1.17016873	      0.00187394	      6.68391671	     -1.20329019	      1.21335208	      5.20074806	      0.09077018	      4.41010080	    -13.68086423	     -7.49999987	      9.21201065	      1.28219622	      2.58982957	      9.92718257	      0.17326202	     -0.22904176	    -19.73704811	     -7.49999987	     -6.02433242	     -1.83967796	      1.75076533	    -12.44920436	    -16.13848315	     57.54291553	     19.14444564	     40.34979473	    -11.22880360	    -14.21461873	     58.02211361	     18.45129078	     35.62738391
      1.36666670	     -3.39804383	      0.24642505	     -1.37450200	     -0.04356925	      1.17004826	      0.00195937	      6.90954968	     -1.23838370	      1.12590302	      5.28222076	      0.09219214	      4.14153185	    -13.82396838	     -7.49999987	      9.41901726	      1.26111763	      2.39816046	      9.87955953	      0.17243084	     -0.47929994	    -19.81601383	     -7.49999987	     -5.80594547	     -1.69113143	      1.68762239	    -13.05278016	    -16.39610390	     59.80199172	     19.05831070	     37.88285196	    -11.77001711	    -14.45542973	     59.19012397	     19.62207968	     34.50215573
      1.38333330	     -3.71760062	      0.29379144	     -1.40226551	     -0.04162660	      1.16888104	      0.00196104	      7.15559556	     -1.28957154	      0.98652518	      5.29851928	      0.09247661	      4.09352610	    -13.60603533	     -7.49999987	      9.67535408	      1.27339978	      2.30450883	      9.81802033	      0.17135678	     -0.72694473	    -19.98601001	     -7.49999987	     -5.59386038	     -1.60420327	      1.58469904	    -13.96437590	    -16.51773511	     59.23174919	     18.93235022	     39.98781177	    -12.66558618	    -14.57634714	     58.85663033	     20.68286583	     37.13252246
      1.40000000	     -3.98430912	      0.33646442	     -1.36003968	     -0.03971196	      1.16848815	      0.00164497	      7.27636770	     -1.36522297	      0.84160503	      5.26286387	      0.09185430	      4.03455800	    -13.36006351	     -7.49999987	      9.82152319	      1.27666861	      2.13242717	      9.70540621	      0.16939129	     -1.02793833	    -19.99161359	     -7.49999987	     -5.36097867	     -1.54421151	      1.43909548	    -14.73294999	    -16.94181365	     62.10397844	     19.12360339	     37.11197836	    -13.54268414	    -14.93402667	     62.77202472	     22.32388758	     35.06299637
      1.41666670	     -4.27859548	      0.38342412	     -1.35169647	     -0.03897838	      1.16854822	      0.00084523	      7.46548695	     -1.44067662	      0.76169128	      5.24347892	      0.09151597	      4.18993358	    -12.94242780	     -7.49999987	      9.96403126	      1.31149696	      2.05758547	      9.52441994	      0.16623249	     -1.18740243	    -19.95463739	     -7.49999987	     -5.20022394	     -1.51880391	      1.18940827	    -15.40094344	    -17.17189247	     63.28274770	     18.83330186	     38.60621825	    -14.60672500	    -14.97788386	     65.32454586	     23.61210648	     36.95557231
      1.43333330	     -4.20080159	      0.37017878	     -1.27043791	     -0.03569930	      1.16542245	      0.00160992	      7.17413667	     -1.42661964	      0.87320701	      5.05096920	      0.08815604	      4.58024477	    -12.54550912	     -7.49999987	      9.68557445	      1.29353335	      1.94536492	      9.34444197	      0.16309128	     -0.91437207	    -19.56039511	     -7.49999987	     -5.61825125	     -1.53584346	      0.73317123	    -16.16933321	    -17.69613088	     62.61518816	     19.64476060	     41.88051055	    -16.00644818	    -15.10801483	     65.95036960	     25.50632706	     40.65310583
      1.45000000	     -4.66429837	      0.36111126	     -1.24893989	     -0.03537161	      1.16347138	      0.00189391	      7.56263032	     -1.41778805	      1.00375951	      5.03519463	      0.08788072	      4.45324015	    -12.96728107	     -7.49999987	     10.02697432	      1.27690753	      2.05060327	      9.22660602	      0.16103465	     -1.12987754	    -19.75210501	     -7.49999987	     -5.05872002	     -1.49290227	      0.77351999	    -16.81615524	    -17.76462472	     65.49368303	     19.16669070	     41.37369491	    -16.13802573	    -15.38371066	     73.29639132	     27.12102429	     40.79654664
      1.46666670	     -4.67013606	      0.30210140	     -1.28607557	     -0.03566458	      1.16453537	      0.00221045	      7.47029759	     -1.32426400	      1.03530767	      4.94173348	      0.08624952	      4.87233519	    -12.61896930	     -7.49999987	      9.88232161	      1.18659560	      1.85613666	      9.03867172	      0.15775458	     -0.64965336	    -19.29700697	     -7.49999987	     -5.38506570	     -1.56357296	      0.30744067	    -16.95773269	    -18.21222125	     65.30358594	     20.02547773	     42.21597212	    -16.87243441	    -15.12757747	     74.61756246	     28.31090903	     41.80366731
      1.48333330	     -5.07505273	      0.31803632	     -1.25798606	     -0.03493556	      1.16314561	      0.00211536	      7.80670492	     -1.32975979	      1.09528636	      4.86579115	      0.08492408	      4.75482841	    -13.04066387	     -7.49999987	     10.20254622	      1.19414780	      1.98340156	      8.95385853	      0.15627431	     -0.73267004	    -19.40139291	     -7.49999987	     -4.77842670	     -1.56044264	      0.85474564	    -17.63713924	    -18.10754587	     67.85401997	     20.14976955	     37.02631827	    -15.45703262	    -15.62242320	     84.14634140	     30.46300687	     33.78947000
      1.50000000	     -5.27840890	      0.33019261	     -1.28125830	     -0.03753309	      1.16436589	      0.00118076	      7.98705752	     -1.33693155	      1.07279252	      4.93288723	      0.08609512	      4.92031761	    -13.09834713	     -7.49999987	     10.37781017	      1.22693674	      2.01682218	      8.95567379	      0.15630599	     -0.65788051	    -19.45117614	     -7.49999987	     -4.70301128	     -1.64595115	      0.64704762	    -17.55888208	    -18.25921437	     68.46886238	     20.62873567	     37.20602957	    -15.55581532	    -15.48693833	     85.36873709	     31.30081407	     34.22238991
      1.51666670	     -5.35355941	      0.32943963	     -1.26208183	     -0.03616434	      1.16544407	      0.00051589	      8.00853653	     -1.31239550	      1.12082547	      4.97463002	      0.08682367	      5.01854915	    -13.11848516	     -7.49999987	     10.43436639	      1.22902534	      1.98464218	      8.92414491	      0.15575571	     -0.35100438	    -19.21006703	     -7.49999987	     -4.78543891	     -1.70287124	      0.84684153	    -17.63681739	    -18.11849383	     66.31813105	     20.70247476	     43.68917684	    -15.08232759	    -15.19925783	     84.42986625	     30.52751459	     41.67264782
      1.53333330	     -5.47332897	      0.38206221	     -1.25670648	     -0.03654554	      1.16503417	      0.00095432	      8.13945561	     -1.36775239	      1.06267168	      5.14171283	      0.08973982	      5.20201334	    -13.08557181	     -7.49999987	     10.56219181	      1.31228056	      2.04786116	      8.88273220	      0.15503292	     -0.32678559	    -19.17608934	     -7.49999987	     -4.74828709	     -1.81105310	      1.21415721	    -17.37411641	    -18.12746452	     66.51022953	     21.54255003	     43.84959309	    -14.27614184	    -15.35382610	     84.19773724	     30.79583689	     41.82798057
